HIERARCHY
ROOT Root
{
	OFFSET 0.00000 0.00000 0.00000
	CHANNELS 6 Xposition Yposition Zposition Zrotation Xrotation Yrotation
	JOINT Hip
	{
		OFFSET 0 0 0	
		CHANNELS 3 Zrotation Xrotation Yrotation
		JOINT Tummy
		{
			OFFSET 0 0.04 0	
			CHANNELS 3 Zrotation Xrotation Yrotation
			JOINT ChestBottom
			{
				OFFSET 0 0.194 0	
				CHANNELS 3 Zrotation Xrotation Yrotation
				JOINT ChestTop
				{
					OFFSET 0 0.166 0	
					CHANNELS 3 Zrotation Xrotation Yrotation
					JOINT LeftCollar
					{
						OFFSET 0 0.1 0	
						CHANNELS 3 Zrotation Xrotation Yrotation
						JOINT LeftUpperArm
						{
							OFFSET 0.156 -0.02 0.03	
							CHANNELS 3 Zrotation Xrotation Yrotation
							JOINT LeftForeArm
							{
								OFFSET 0.035 -0.27 -0.01	
								CHANNELS 3 Zrotation Xrotation Yrotation
								JOINT LeftHand
								{
									OFFSET 0.01 -0.27 0.01	
									CHANNELS 3 Zrotation Xrotation Yrotation
									End Site
									{
										OFFSET 0 -0.15 0
									}
								}
							}
						}
					}
					JOINT RightCollar
					{
						OFFSET 0 0.1 0	
						CHANNELS 3 Zrotation Xrotation Yrotation
						JOINT RightUpperArm
						{
							OFFSET -0.156 -0.02 0.03	
							CHANNELS 3 Zrotation Xrotation Yrotation
							JOINT RightForeArm
							{
								OFFSET -0.035 -0.27 -0.01	
								CHANNELS 3 Zrotation Xrotation Yrotation
								JOINT RightHand
								{
									OFFSET -0.01 -0.27 0.01	
									CHANNELS 3 Zrotation Xrotation Yrotation
									End Site
									{
										OFFSET 0 -0.15 0
									}
								}
							}
						}
					}
					JOINT Neck
					{
						OFFSET 0 0.1 0	
						CHANNELS 3 Zrotation Xrotation Yrotation
						JOINT Head
						{
							OFFSET 0 0.127 0.03	
							CHANNELS 3 Zrotation Xrotation Yrotation
							End Site
							{
								OFFSET 0 0.127 0.03
							}
						}
					}
				}
			}
		}
	}
	JOINT LeftHip
	{
		OFFSET 0 0 0	
		CHANNELS 3 Zrotation Xrotation Yrotation
		JOINT LeftThigh
		{
			OFFSET 0.088 -0.06 0	
			CHANNELS 3 Zrotation Xrotation Yrotation
			JOINT LeftLowerLeg
			{
				OFFSET 0 -0.39 0.02	
				CHANNELS 3 Zrotation Xrotation Yrotation
				JOINT LeftFootTop
				{
					OFFSET 0 -0.43 -0.02	
					CHANNELS 3 Zrotation Xrotation Yrotation
					JOINT LeftFootFront
					{
						OFFSET 0 -0.07 0.085	
						CHANNELS 3 Zrotation Xrotation Yrotation
						End Site
						{
							OFFSET 0 -0.005 0.09
						}
					}
				}
				JOINT LeftHeel
				{
					OFFSET 0 -0.43 -0.02	
					CHANNELS 3 Zrotation Xrotation Yrotation
					End Site
					{
						OFFSET 0 -0.075 -0.05
					}
				}
			}
		}
	}
	JOINT RightHip
	{
		OFFSET 0 0 0	
		CHANNELS 3 Zrotation Xrotation Yrotation
		JOINT RightThigh
		{
			OFFSET -0.088 -0.06 0	
			CHANNELS 3 Zrotation Xrotation Yrotation
			JOINT RightLowerLeg
			{
				OFFSET 0 -0.39 0.02	
				CHANNELS 3 Zrotation Xrotation Yrotation
				JOINT RightFootTop
				{
					OFFSET 0 -0.43 -0.02	
					CHANNELS 3 Zrotation Xrotation Yrotation
					JOINT RightFootFront
					{
						OFFSET 0 -0.07 0.085	
						CHANNELS 3 Zrotation Xrotation Yrotation
						End Site
						{
							OFFSET 0 -0.005 0.09
						}
					}
				}
				JOINT RightHeel
				{
					OFFSET 0 -0.43 -0.02	
					CHANNELS 3 Zrotation Xrotation Yrotation
					End Site
					{
						OFFSET 0 -0.075 -0.05
					}
				}
			}
		}
	}
}
MOTION
Frames: 25
Frame Time: 0.025
0 0.955 0 -0 0 -0 -1.0957 3.0166 7.5184 -0.271 0.20245 0.79221 -0.271 0.20245 0.79221 -0.22745 0.17031 0.66539 -0 0 -0 -2.5146 -6.0182 6.4966 1.0658 -13.969 0.56924 -0 0 -0 -0 0 -0 2.6834 -2.6487 -11.523 1.5694 2.0509 -13.174 -0 0 -0 -0 0 -0 -0 0 -0 -0 0 -0 -0 0 -0 -0 0 -0 -0 0 -0 -0 0 -0 -0 0 -0 -0 0 -0 -0 0 -0 -0 0 -0 -0 0 -0 -0 0 -0 -0 0 -0 
0 0.955 0 -0 0 -0 -1.1007 3.0221 7.5178 -0.26628 0.19083 0.78754 -0.26628 0.19083 0.78754 -0.2235 0.16054 0.66147 -0 0 -0 -2.4922 -6.0088 6.4628 1.0545 -13.994 0.60252 -0 0 -0 -0 0 -0 2.6703 -2.6463 -11.528 1.5473 2.0822 -13.156 -0 0 -0 -0 0 -0 -0 0 -0 -0 0 -0 -0 0 -0 -0 0 -0 -0 0 -0 -0 0 -0 -0 0 -0 -0 0 -0 -0 0 -0 -0 0 -0 -0 0 -0 -0 0 -0 -0 0 -0 
0 0.955 0 -0 0 -0 -1.1072 3.0261 7.5185 -0.26371 0.18205 0.77841 -0.26371 0.18205 0.77841 -0.22135 0.15316 0.65381 -0 0 -0 -2.461 -6.0144 6.4409 1.0444 -14.029 0.62685 -0 0 -0 -0 0 -0 2.6638 -2.6593 -11.527 1.5243 2.1246 -13.147 -0 0 -0 -0 0 -0 -0 0 -0 -0 0 -0 -0 0 -0 -0 0 -0 -0 0 -0 -0 0 -0 -0 0 -0 -0 0 -0 -0 0 -0 -0 0 -0 -0 0 -0 -0 0 -0 -0 0 -0 
0 0.955 0 -0 0 -0 -1.1116 3.0251 7.5213 -0.26744 0.17815 0.7657 -0.26744 0.17815 0.7657 -0.22449 0.14989 0.64313 -0 0 -0 -2.4136 -6.0295 6.4204 1.0378 -14.066 0.65639 -0 0 -0 -0 0 -0 2.6775 -2.6817 -11.519 1.5313 2.1676 -13.173 -0 0 -0 -0 0 -0 -0 0 -0 -0 0 -0 -0 0 -0 -0 0 -0 -0 0 -0 -0 0 -0 -0 0 -0 -0 0 -0 -0 0 -0 -0 0 -0 -0 0 -0 -0 0 -0 -0 0 -0 
0 0.955 0 -0 0 -0 -1.1135 3.023 7.5228 -0.27433 0.16562 0.75425 -0.27433 0.16562 0.75424 -0.23029 0.13937 0.63351 -0 0 -0 -2.3562 -6.0125 6.3823 1.0402 -14.109 0.70501 -0 0 -0 -0 0 -0 2.7093 -2.6811 -11.516 1.5585 2.2023 -13.214 -0 0 -0 -0 0 -0 -0 0 -0 -0 0 -0 -0 0 -0 -0 0 -0 -0 0 -0 -0 0 -0 -0 0 -0 -0 0 -0 -0 0 -0 -0 0 -0 -0 0 -0 -0 0 -0 -0 0 -0 
0 0.955 0 -0 0 -0 -1.1151 3.0261 7.5181 -0.27947 0.14629 0.74936 -0.27947 0.14629 0.74936 -0.23463 0.12313 0.62941 -0 0 -0 -2.3048 -5.9695 6.3233 1.0622 -14.161 0.76231 -0 0 -0 -0 0 -0 2.7526 -2.6717 -11.528 1.573 2.2211 -13.236 -0 0 -0 -0 0 -0 -0 0 -0 -0 0 -0 -0 0 -0 -0 0 -0 -0 0 -0 -0 0 -0 -0 0 -0 -0 0 -0 -0 0 -0 -0 0 -0 -0 0 -0 -0 0 -0 -0 0 -0 
0 0.955 0 -0 0 -0 -1.1181 3.0332 7.5081 -0.27833 0.13073 0.74496 -0.27833 0.13073 0.74496 -0.23368 0.11005 0.62572 -0 0 -0 -2.2684 -5.9315 6.2685 1.0878 -14.195 0.81634 -0 0 -0 -0 0 -0 2.7909 -2.6738 -11.528 1.5866 2.2279 -13.246 -0 0 -0 -0 0 -0 -0 0 -0 -0 0 -0 -0 0 -0 -0 0 -0 -0 0 -0 -0 0 -0 -0 0 -0 -0 0 -0 -0 0 -0 -0 0 -0 -0 0 -0 -0 0 -0 -0 0 -0 
0 0.955 0 -0 0 -0 -1.1216 3.0386 7.4963 -0.27294 0.11908 0.73789 -0.27294 0.11908 0.73789 -0.22917 0.10026 0.61979 -0 0 -0 -2.2396 -5.8989 6.2355 1.1014 -14.208 0.86778 -0 0 -0 -0 0 -0 2.8159 -2.6705 -11.505 1.6295 2.234 -13.275 -0 0 -0 -0 0 -0 -0 0 -0 -0 0 -0 -0 0 -0 -0 0 -0 -0 0 -0 -0 0 -0 -0 0 -0 -0 0 -0 -0 0 -0 -0 0 -0 -0 0 -0 -0 0 -0 -0 0 -0 
0 0.955 0 -0 0 -0 -1.1237 3.0411 7.4847 -0.26784 0.1224 0.73294 -0.26784 0.1224 0.73294 -0.22488 0.10304 0.61564 -0 0 -0 -2.2143 -5.901 6.2051 1.1183 -14.235 0.92392 -0 0 -0 -0 0 -0 2.8337 -2.6925 -11.477 1.6782 2.2505 -13.316 -0 0 -0 -0 0 -0 -0 0 -0 -0 0 -0 -0 0 -0 -0 0 -0 -0 0 -0 -0 0 -0 -0 0 -0 -0 0 -0 -0 0 -0 -0 0 -0 -0 0 -0 -0 0 -0 -0 0 -0 
0 0.955 0 -0 0 -0 -1.1248 3.043 7.4714 -0.26769 0.14066 0.7438 -0.26769 0.14066 0.74379 -0.22473 0.11839 0.62474 -0 0 -0 -2.1858 -5.9309 6.1198 1.1497 -14.281 1.0085 -0 0 -0 -0 0 -0 2.861 -2.7509 -11.485 1.6884 2.2795 -13.332 -0 0 -0 -0 0 -0 -0 0 -0 -0 0 -0 -0 0 -0 -0 0 -0 -0 0 -0 -0 0 -0 -0 0 -0 -0 0 -0 -0 0 -0 -0 0 -0 -0 0 -0 -0 0 -0 -0 0 -0 
0 0.955 0 -0 0 -0 -1.1257 3.0463 7.4547 -0.27278 0.14448 0.76839 -0.27278 0.14448 0.76839 -0.229 0.12161 0.6454 -0 0 -0 -2.1456 -5.9103 5.9947 1.2158 -14.347 1.0983 -0 0 -0 -0 0 -0 2.8993 -2.7634 -11.536 1.6792 2.3104 -13.321 -0 0 -0 -0 0 -0 -0 0 -0 -0 0 -0 -0 0 -0 -0 0 -0 -0 0 -0 -0 0 -0 -0 0 -0 -0 0 -0 -0 0 -0 -0 0 -0 -0 0 -0 -0 0 -0 -0 0 -0 
0 0.955 0 -0 0 -0 -1.1266 3.0514 7.4364 -0.28278 0.12877 0.79068 -0.28278 0.12877 0.79068 -0.23742 0.10843 0.66413 -0 0 -0 -2.0926 -5.842 5.9062 1.3587 -14.482 1.1158 -0 0 -0 -0 0 -0 2.9397 -2.7157 -11.599 1.701 2.3365 -13.304 -0 0 -0 -0 0 -0 -0 0 -0 -0 0 -0 -0 0 -0 -0 0 -0 -0 0 -0 -0 0 -0 -0 0 -0 -0 0 -0 -0 0 -0 -0 0 -0 -0 0 -0 -0 0 -0 -0 0 -0 
0 0.955 0 -0 0 -0 -1.1288 3.0558 7.4187 -0.29317 0.11009 0.80238 -0.29317 0.11009 0.80238 -0.24616 0.092754 0.67396 -0 0 -0 -2.0469 -5.7766 5.887 1.6127 -14.776 1.0301 -0 0 -0 -0 0 -0 2.9718 -2.6563 -11.64 1.7361 2.3489 -13.278 -0 0 -0 -0 0 -0 -0 0 -0 -0 0 -0 -0 0 -0 -0 0 -0 -0 0 -0 -0 0 -0 -0 0 -0 -0 0 -0 -0 0 -0 -0 0 -0 -0 0 -0 -0 0 -0 -0 0 -0 
0 0.955 0 -0 0 -0 -1.1334 3.0572 7.4008 -0.29638 0.09696 0.80697 -0.29638 0.09696 0.80697 -0.24887 0.081728 0.67782 -0 0 -0 -2.028 -5.728 5.9152 1.9664 -15.279 0.8988 -0 0 -0 -0 0 -0 2.9824 -2.608 -11.646 1.737 2.3317 -13.24 -0 0 -0 -0 0 -0 -0 0 -0 -0 0 -0 -0 0 -0 -0 0 -0 -0 0 -0 -0 0 -0 -0 0 -0 -0 0 -0 -0 0 -0 -0 0 -0 -0 0 -0 -0 0 -0 -0 0 -0 
0 0.955 0 -0 0 -0 -1.1385 3.0553 7.3817 -0.29158 0.087406 0.80811 -0.29158 0.087406 0.80811 -0.24485 0.073698 0.67878 -0 0 -0 -2.0286 -5.6871 5.9774 2.356 -15.897 0.8986 -0 0 -0 -0 0 -0 2.9697 -2.5652 -11.632 1.7128 2.2915 -13.211 -0 0 -0 -0 0 -0 -0 0 -0 -0 0 -0 -0 0 -0 -0 0 -0 -0 0 -0 -0 0 -0 -0 0 -0 -0 0 -0 -0 0 -0 -0 0 -0 -0 0 -0 -0 0 -0 -0 0 -0 
0 0.955 0 -0 0 -0 -1.141 3.0507 7.3625 -0.28693 0.078649 0.80284 -0.28693 0.078648 0.80284 -0.24095 0.066335 0.67436 -0 0 -0 -2.0247 -5.6523 6.0778 2.7393 -16.465 1.1064 -0 0 -0 -0 0 -0 2.9595 -2.5349 -11.629 1.6986 2.2647 -13.202 -0 0 -0 -0 0 -0 -0 0 -0 -0 0 -0 -0 0 -0 -0 0 -0 -0 0 -0 -0 0 -0 -0 0 -0 -0 0 -0 -0 0 -0 -0 0 -0 -0 0 -0 -0 0 -0 -0 0 -0 
0 0.955 0 -0 0 -0 -1.1412 3.0451 7.3478 -0.29014 0.064368 0.78627 -0.29014 0.064368 0.78627 -0.24365 0.054337 0.66044 -0 0 -0 -2.0006 -5.6101 6.2026 3.122 -16.925 1.4362 -0 0 -0 -0 0 -0 2.9837 -2.5179 -11.646 1.6803 2.2709 -13.181 -0 0 -0 -0 0 -0 -0 0 -0 -0 0 -0 -0 0 -0 -0 0 -0 -0 0 -0 -0 0 -0 -0 0 -0 -0 0 -0 -0 0 -0 -0 0 -0 -0 0 -0 -0 0 -0 -0 0 -0 
0 0.955 0 -0 0 -0 -1.1414 3.0429 7.3384 -0.30292 0.036116 0.76162 -0.30292 0.036116 0.76162 -0.25442 0.030608 0.63975 -0 0 -0 -1.9557 -5.5356 6.3128 3.5276 -17.341 1.778 -0 0 -0 -0 0 -0 3.0435 -2.4885 -11.665 1.628 2.2886 -13.13 -0 0 -0 -0 0 -0 -0 0 -0 -0 0 -0 -0 0 -0 -0 0 -0 -0 0 -0 -0 0 -0 -0 0 -0 -0 0 -0 -0 0 -0 -0 0 -0 -0 0 -0 -0 0 -0 -0 0 -0 
0 0.955 0 -0 0 -0 -1.1403 3.0459 7.3347 -0.32101 -0.00053859 0.73352 -0.32101 -0.00053903 0.73352 -0.26965 -0.00017635 0.61616 -0 0 -0 -1.9066 -5.4348 6.382 4.0011 -17.797 2.1 -0 0 -0 -0 0 -0 3.1116 -2.4334 -11.653 1.5513 2.2795 -13.083 -0 0 -0 -0 0 -0 -0 0 -0 -0 0 -0 -0 0 -0 -0 0 -0 -0 0 -0 -0 0 -0 -0 0 -0 -0 0 -0 -0 0 -0 -0 0 -0 -0 0 -0 -0 0 -0 -0 0 -0 
0 0.955 0 -0 0 -0 -1.1361 3.0538 7.3376 -0.3378 -0.028582 0.70405 -0.3378 -0.028582 0.70405 -0.28377 -0.02373 0.59141 -0 0 -0 -1.8725 -5.3413 6.4086 4.583 -18.334 2.4879 -0 0 -0 -0 0 -0 3.1654 -2.3798 -11.6 1.4774 2.2179 -13.088 -0 0 -0 -0 0 -0 -0 0 -0 -0 0 -0 -0 0 -0 -0 0 -0 -0 0 -0 -0 0 -0 -0 0 -0 -0 0 -0 -0 0 -0 -0 0 -0 -0 0 -0 -0 0 -0 -0 0 -0 
0 0.955 0 -0 0 -0 -1.1335 3.063 7.3442 -0.34741 -0.052801 0.67936 -0.34741 -0.0528 0.67936 -0.29187 -0.044076 0.57068 -0 0 -0 -1.863 -5.2305 6.3997 5.2717 -18.925 3.1232 -0 0 -0 -0 0 -0 3.206 -2.3059 -11.538 1.3908 2.0573 -13.158 -0 0 -0 -0 0 -0 -0 0 -0 -0 0 -0 -0 0 -0 -0 0 -0 -0 0 -0 -0 0 -0 -0 0 -0 -0 0 -0 -0 0 -0 -0 0 -0 -0 0 -0 -0 0 -0 -0 0 -0 
0 0.955 0 -0 0 -0 -1.1345 3.0714 7.3508 -0.34681 -0.081584 0.65362 -0.34681 -0.081583 0.65362 -0.29138 -0.068265 0.54907 -0 0 -0 -1.8807 -5.0833 6.4005 6.0738 -19.545 4.1195 -0 0 -0 -0 0 -0 3.2465 -2.1747 -11.47 1.2107 1.6504 -13.285 -0 0 -0 -0 0 -0 -0 0 -0 -0 0 -0 -0 0 -0 -0 0 -0 -0 0 -0 -0 0 -0 -0 0 -0 -0 0 -0 -0 0 -0 -0 0 -0 -0 0 -0 -0 0 -0 -0 0 -0 
0 0.955 0 -0 0 -0 -1.1364 3.0789 7.3576 -0.33864 -0.11024 0.62281 -0.33864 -0.11024 0.62281 -0.28454 -0.092358 0.5232 -0 0 -0 -1.9216 -4.9247 6.4437 7.0604 -20.23 5.3894 -0 0 -0 -0 0 -0 3.299 -1.9759 -11.382 0.83128 0.7453 -13.472 -0 0 -0 -0 0 -0 -0 0 -0 -0 0 -0 -0 0 -0 -0 0 -0 -0 0 -0 -0 0 -0 -0 0 -0 -0 0 -0 -0 0 -0 -0 0 -0 -0 0 -0 -0 0 -0 -0 0 -0 
0 0.955 0 -0 0 -0 -1.1327 3.0905 7.3696 -0.32764 -0.14157 0.58508 -0.32764 -0.14157 0.58508 -0.27531 -0.1187 0.49152 -0 0 -0 -1.9858 -4.7561 6.5383 8.3367 -20.982 6.8865 -0 0 -0 -0 0 -0 3.3648 -1.692 -11.291 0.14631 -0.88271 -13.704 -0 0 -0 -0 0 -0 -0 0 -0 -0 0 -0 -0 0 -0 -0 0 -0 -0 0 -0 -0 0 -0 -0 0 -0 -0 0 -0 -0 0 -0 -0 0 -0 -0 0 -0 -0 0 -0 -0 0 -0 
0 0.955 0 -0 0 -0 -1.1202 3.1136 7.3874 -0.31959 -0.17977 0.54306 -0.31959 -0.17977 0.54306 -0.26857 -0.1508 0.45624 -0 0 -0 -2.0685 -4.5729 6.6598 10.064 -21.76 8.7464 -0 0 -0 -0 0 -0 3.4626 -1.3523 -11.27 -0.9737 -3.3496 -14.013 -0 0 -0 -0 0 -0 -0 0 -0 -0 0 -0 -0 0 -0 -0 0 -0 -0 0 -0 -0 0 -0 -0 0 -0 -0 0 -0 -0 0 -0 -0 0 -0 -0 0 -0 -0 0 -0 -0 0 -0 
